<svg xmlns="http://www.w3.org/2000/svg" viewBox="0 0 640 400" role="img" aria-labelledby="title desc">
  <title id="title">Effective HTML comparison mockup</title>
  <desc id="desc">Two warm-paper HTML specimens compared on a dark Effective HTML field.</desc>
  <rect width="640" height="400" fill="#141413"/>
  <rect x="24" y="20" width="592" height="44" rx="4" fill="#20201e" stroke="#6b6257"/>
  <circle cx="47" cy="42" r="12" fill="#1bae61"/>
  <rect x="70" y="33" width="124" height="8" fill="#fff9ef"/>
  <rect x="70" y="47" width="190" height="5" fill="#a99c8c"/>
  <rect x="445" y="20" width="72" height="44" fill="#a884e8"/>
  <rect x="517" y="20" width="99" height="44" fill="#1bae61"/>
  <g transform="translate(24 82)">
    <rect width="284" height="292" rx="6" fill="#fff9ef"/>
    <path d="M0 44H284" stroke="#b9ae9d"/>
    <rect x="16" y="15" width="116" height="9" fill="#141413"/>
    <rect x="16" y="29" width="160" height="5" fill="#6e675e"/>
    <rect x="20" y="62" width="244" height="188" rx="4" fill="#f3e6d2" stroke="#141413"/>
    <rect x="20" y="62" width="244" height="82" fill="#1649d8"/>
    <path d="M20 144L88 100L150 144Z" fill="#a884e8"/>
    <path d="M140 144L220 104L264 144Z" fill="#a884e8"/>
    <circle cx="226" cy="90" r="14" fill="#f09aa8"/>
    <rect x="34" y="160" width="94" height="7" fill="#141413"/>
    <rect x="34" y="176" width="120" height="5" fill="#9e9588"/>
    <rect x="34" y="196" width="54" height="19" fill="#1bae61"/>
    <rect x="174" y="160" width="74" height="66" fill="#2a2926"/>
    <rect x="16" y="265" width="88" height="12" rx="6" fill="none" stroke="#6e675e"/>
  </g>
  <g transform="translate(332 82)">
    <rect width="284" height="292" rx="6" fill="#fff9ef"/>
    <path d="M0 44H284" stroke="#b9ae9d"/>
    <rect x="16" y="15" width="158" height="9" fill="#141413"/>
    <rect x="16" y="29" width="196" height="5" fill="#6e675e"/>
    <rect x="20" y="62" width="244" height="188" rx="4" fill="#252522" stroke="#141413"/>
    <rect x="20" y="62" width="78" height="188" fill="#20201e"/>
    <rect x="31" y="78" width="56" height="22" rx="11" fill="#173626" stroke="#1bae61"/>
    <rect x="31" y="109" width="56" height="18" rx="9" fill="none" stroke="#6b6257"/>
    <rect x="31" y="136" width="56" height="18" rx="9" fill="none" stroke="#6b6257"/>
    <path d="M130 104H225M130 104L174 185M174 185H232" stroke="#e8744f" stroke-width="2"/>
    <rect x="111" y="89" width="44" height="24" rx="4" fill="#173626" stroke="#1bae61"/>
    <rect x="207" y="89" width="44" height="24" rx="4" fill="#141413" stroke="#6b6257"/>
    <rect x="151" y="176" width="48" height="24" rx="4" fill="#173626" stroke="#1bae61"/>
    <rect x="213" y="176" width="40" height="24" rx="4" fill="#141413" stroke="#6b6257"/>
    <rect x="16" y="265" width="88" height="12" rx="6" fill="none" stroke="#6e675e"/>
  </g>
</svg>
