<svg xmlns="http://www.w3.org/2000/svg" viewBox="0 0 640 400" role="img" aria-labelledby="title desc">
  <title id="title">Effective HTML comparison wireframe</title>
  <desc id="desc">Two grayscale browser wireframes shown side by side with a comparison control.</desc>
  <rect width="640" height="400" fill="#f2f2ef"/>
  <rect x="28" y="24" width="584" height="352" fill="#fff" stroke="#171717" stroke-width="2"/>
  <path d="M28 76H612M320 76V376" stroke="#171717" stroke-width="2"/>
  <rect x="46" y="40" width="126" height="12" fill="#171717"/>
  <rect x="448" y="36" width="70" height="24" fill="#171717"/>
  <rect x="518" y="36" width="76" height="24" fill="#fff" stroke="#171717"/>
  <g transform="translate(48 98)">
    <rect width="250" height="238" fill="#f7f7f4" stroke="#171717"/>
    <path d="M0 30H250" stroke="#171717"/>
    <circle cx="12" cy="15" r="3" fill="none" stroke="#171717"/>
    <circle cx="24" cy="15" r="3" fill="none" stroke="#171717"/>
    <circle cx="36" cy="15" r="3" fill="none" stroke="#171717"/>
    <rect x="18" y="52" width="132" height="8" fill="#171717"/>
    <rect x="18" y="76" width="132" height="52" fill="#e3e3df" stroke="#888"/>
    <rect x="164" y="52" width="68" height="130" fill="#e3e3df" stroke="#888"/>
    <rect x="18" y="142" width="62" height="48" fill="#fff" stroke="#aaa"/>
    <rect x="90" y="142" width="62" height="48" fill="#fff" stroke="#aaa"/>
    <rect x="18" y="200" width="62" height="20" fill="#fff" stroke="#aaa"/>
    <rect x="90" y="200" width="62" height="20" fill="#fff" stroke="#aaa"/>
    <rect x="164" y="194" width="68" height="26" fill="#171717"/>
  </g>
  <g transform="translate(342 98)">
    <rect width="250" height="238" fill="#f7f7f4" stroke="#171717"/>
    <path d="M0 30H250" stroke="#171717"/>
    <circle cx="12" cy="15" r="3" fill="none" stroke="#171717"/>
    <circle cx="24" cy="15" r="3" fill="none" stroke="#171717"/>
    <circle cx="36" cy="15" r="3" fill="none" stroke="#171717"/>
    <rect x="18" y="52" width="168" height="8" fill="#171717"/>
    <rect x="18" y="76" width="132" height="52" fill="#e3e3df" stroke="#888"/>
    <rect x="164" y="52" width="68" height="130" fill="#e3e3df" stroke="#888"/>
    <rect x="18" y="142" width="62" height="48" fill="#fff" stroke="#aaa"/>
    <rect x="90" y="142" width="62" height="48" fill="#fff" stroke="#aaa"/>
    <rect x="18" y="200" width="62" height="20" fill="#fff" stroke="#aaa"/>
    <rect x="90" y="200" width="62" height="20" fill="#fff" stroke="#aaa"/>
    <rect x="164" y="194" width="68" height="26" fill="#171717"/>
  </g>
</svg>
